<svg width="200" height="200" viewBox="0 0 200 200" fill="none" xmlns="http://www.w3.org/2000/svg">
  <!-- Background -->
  <rect width="200" height="200" rx="44" fill="#141523"/>

  <!-- Vertical timeline spine -->
  <line x1="52" y1="26" x2="52" y2="174" stroke="#3a3d5a" stroke-width="3"/>

  <!-- Day 1 header bar -->
  <rect x="64" y="24" width="112" height="10" rx="5" fill="#dde2f0" opacity="0.85"/>

  <!-- Hour group 1 -->
  <circle cx="52" cy="52" r="6" fill="#58c4f5"/>
  <rect x="64" y="46" width="88" height="9" rx="4.5" fill="#58c4f5" opacity="0.55"/>
  <rect x="64" y="61" width="112" height="9" rx="4.5" fill="#7880b8" opacity="0.75"/>
  <rect x="64" y="76" width="70" height="9" rx="4.5" fill="#7880b8" opacity="0.6"/>

  <!-- Hour group 2 -->
  <circle cx="52" cy="106" r="6" fill="#58c4f5"/>
  <rect x="64" y="100" width="104" height="9" rx="4.5" fill="#58c4f5" opacity="0.55"/>
  <rect x="64" y="115" width="78" height="9" rx="4.5" fill="#7880b8" opacity="0.6"/>

  <!-- Day 2 header bar (dimmer = older) -->
  <rect x="64" y="136" width="96" height="10" rx="5" fill="#dde2f0" opacity="0.38"/>

  <!-- Hour group 3 (older, more faded) -->
  <circle cx="52" cy="160" r="6" fill="#7880b8" opacity="0.55"/>
  <rect x="64" y="154" width="92" height="9" rx="4.5" fill="#7880b8" opacity="0.38"/>
  <rect x="64" y="169" width="60" height="9" rx="4.5" fill="#7880b8" opacity="0.3"/>
</svg>
